<svg width="256" height="256" viewBox="0 0 256 256" fill="none" xmlns="http://www.w3.org/2000/svg">
  <rect width="256" height="256" rx="72" fill="#0B1220"/>
  <rect x="24" y="24" width="208" height="208" rx="60" fill="url(#bg)"/>
  <rect x="30" y="30" width="196" height="196" rx="54" stroke="white" stroke-opacity="0.14" stroke-width="2"/>
  <path d="M78 184V72H102L154 145V72H178V184H154L102 111V184H78Z" fill="white"/>
  <path d="M92 166V90H102L154 163V90H164V166H154L102 93V166H92Z" fill="url(#shine)" fill-opacity="0.3"/>
  <rect x="72" y="66" width="22" height="124" rx="11" fill="url(#edgeGlow)" fill-opacity="0.18"/>
  <circle cx="92" cy="78" r="30" fill="url(#glow)" fill-opacity="0.8"/>
  <defs>
    <linearGradient id="bg" x1="40" y1="30" x2="214" y2="226" gradientUnits="userSpaceOnUse">
      <stop stop-color="#22C5C2"/>
      <stop offset="0.52" stop-color="#5B8DEF"/>
      <stop offset="1" stop-color="#7C72FF"/>
    </linearGradient>
    <linearGradient id="shine" x1="74" y1="74" x2="182" y2="182" gradientUnits="userSpaceOnUse">
      <stop stop-color="#22C5C2"/>
      <stop offset="0.52" stop-color="#5B8DEF"/>
      <stop offset="1" stop-color="#7C72FF"/>
    </linearGradient>
    <linearGradient id="edgeGlow" x1="83" y1="66" x2="83" y2="190" gradientUnits="userSpaceOnUse">
      <stop stop-color="white"/>
      <stop offset="1" stop-color="white" stop-opacity="0"/>
    </linearGradient>
    <radialGradient id="glow" cx="0" cy="0" r="1" gradientUnits="userSpaceOnUse" gradientTransform="translate(92 80) rotate(90) scale(30)">
      <stop stop-color="white" stop-opacity="0.38"/>
      <stop offset="1" stop-color="white" stop-opacity="0"/>
    </radialGradient>
  </defs>
</svg>
